<svg xmlns="http://www.w3.org/2000/svg" viewBox="0 0 1600 1200" fill="none">
  <defs>
    <pattern id="grain" width="42" height="24" patternUnits="userSpaceOnUse">
      <circle cx="6" cy="5" r="1.1" fill="#f7fcfd" fill-opacity="0.16"/>
      <circle cx="18" cy="8" r="0.95" fill="#dce5e8" fill-opacity="0.13"/>
      <circle cx="29" cy="5" r="0.9" fill="#eef5f7" fill-opacity="0.11"/>
      <circle cx="37" cy="12" r="1.05" fill="#d4dfe2" fill-opacity="0.12"/>
      <circle cx="14" cy="18" r="0.95" fill="#f7fcfd" fill-opacity="0.09"/>
    </pattern>
  </defs>
  <path d="M-168 96C25 20 178 118 365 214C557 311 724 339 875 258C1055 161 1203 149 1390 235C1532 301 1651 340 1778 337V509C1648 510 1524 474 1362 414C1166 342 1018 337 848 456C683 571 503 562 306 468C114 376-28 337-168 389V96Z" fill="#d7dfe1" fill-opacity="0.1"/>
  <path d="M-203 463C-21 399 162 423 382 551C586 669 740 703 912 642C1098 575 1268 592 1505 738C1612 804 1709 848 1802 868V1047C1675 1020 1539 960 1374 855C1173 728 1017 710 845 770C653 837 469 836 245 724C54 628-104 597-203 627V463Z" fill="#d7dfe1" fill-opacity="0.12"/>
  <path d="M-245 765C-61 705 146 747 412 900C598 1008 770 1044 971 986C1177 927 1363 948 1618 1083L1618 1288L-245 1288V765Z" fill="#d7dfe1" fill-opacity="0.1"/>
  <path d="M-76 194C95 173 230 220 412 297C617 384 777 403 945 349C1085 303 1208 307 1400 369C1516 406 1614 425 1715 425V493C1599 493 1487 474 1327 430C1162 385 1041 388 905 430C708 492 518 470 277 364C116 293 14 263-76 274V194Z" fill="#f3fbfb" fill-opacity="0.3"/>
  <path d="M-97 610C96 578 246 626 429 728C614 832 773 869 962 829C1116 796 1253 816 1447 910C1542 956 1629 990 1715 1008V1082C1594 1060 1482 1018 1348 947C1182 860 1060 841 918 867C708 905 517 873 296 755C131 667 18 635-97 692V610Z" fill="#f3fbfb" fill-opacity="0.27"/>
  <path d="M-221 932C-35 900 140 935 347 1025C564 1119 741 1141 922 1096C1099 1052 1294 1062 1602 1168V1233C1312 1149 1114 1131 944 1167C716 1216 513 1195 254 1088C72 1013-60 981-221 1017V932Z" fill="#f3fbfb" fill-opacity="0.2"/>
  <path d="M-76 194C95 173 230 220 412 297C617 384 777 403 945 349C1085 303 1208 307 1400 369C1516 406 1614 425 1715 425V493C1599 493 1487 474 1327 430C1162 385 1041 388 905 430C708 492 518 470 277 364C116 293 14 263-76 274V194Z" fill="url(#grain)" opacity="0.42"/>
  <path d="M-97 610C96 578 246 626 429 728C614 832 773 869 962 829C1116 796 1253 816 1447 910C1542 956 1629 990 1715 1008V1082C1594 1060 1482 1018 1348 947C1182 860 1060 841 918 867C708 905 517 873 296 755C131 667 18 635-97 692V610Z" fill="url(#grain)" opacity="0.38"/>
  <path d="M-221 932C-35 900 140 935 347 1025C564 1119 741 1141 922 1096C1099 1052 1294 1062 1602 1168V1233C1312 1149 1114 1131 944 1167C716 1216 513 1195 254 1088C72 1013-60 981-221 1017V932Z" fill="url(#grain)" opacity="0.28"/>
</svg>
